# xmcd CD database file
#
# Track frame offsets:
#	150
#	25377
#	42477
#	65940
#	99482
#	125327
#	153605
#
# Disc length: 2339 seconds
#
# Revision: 0
# Processed by: cddbd v1.5.2PL0 Copyright (c) Steve Scherf et al.
# Submitted via: Feurio! 1.68 - http://www.feurio.com
#
DISCID=62092107
DTITLE=Mesrine - Carpet Crawlers
DYEAR=1900
DGENRE=
TTITLE0=Carpet Crawlers
TTITLE1=Carpet Crawlers (Radio Edit)
TTITLE2=Carpet Crawlers (Voov Mix)
TTITLE3=Carpet Crawlers (Voov Moning In Time Rmx)
TTITLE4=Carpet Crawlers (Moloko Axeminister Rmx)
TTITLE5=Carpet Crawlers (Moloko Nylon Rmx)
TTITLE6=Carpet Crawlers (Night Cab)
EXTD=
EXTT0=
EXTT1=
EXTT2=
EXTT3=
EXTT4=
EXTT5=
EXTT6=
PLAYORDER=
